<?xml version="1.0" encoding="UTF-8" standalone="no"?>
<!-- Created with Inkscape (http://www.inkscape.org/) -->
<svg id="svg3433" xmlns:rdf="http://www.w3.org/1999/02/22-rdf-syntax-ns#" xmlns="http://www.w3.org/2000/svg" height="184.25" width="262.2" version="1.1" xmlns:cc="http://creativecommons.org/ns#" xmlns:dc="http://purl.org/dc/elements/1.1/">
 <defs id="defs3435">
  <filter id="filter3660" color-interpolation-filters="sRGB">
   <feTurbulence id="feTurbulence3662" numOctaves="1" baseFrequency="0.002 0.107"/>
   <feColorMatrix id="feColorMatrix3664" values="2 0 0 0 0 0 0 0 0 0 0 0 0 0 0 0 0 0 0.5 0.5" result="result91"/>
   <feDisplacementMap id="feDisplacementMap3666" scale="14.3" yChannelSelector="A" in2="result91" xChannelSelector="R" in="SourceGraphic"/>
  </filter>
 </defs>
 <metadata id="metadata3438">
  <rdf:RDF>
   <cc:Work rdf:about="">
    <dc:format>image/svg+xml</dc:format>
    <dc:type rdf:resource="http://purl.org/dc/dcmitype/StillImage"/>
    <dc:title/>
   </cc:Work>
  </rdf:RDF>
 </metadata>
 <g id="layer1" transform="translate(0,-868.11019)">
  <ellipse id="path3636" d="m 469.50958,540.93365 c 0,34.31035 -37.9899,62.12439 -84.85281,62.12439 -46.86292,0 -84.85281,-27.81404 -84.85281,-62.12439 0,-34.31034 37.98989,-62.12438 84.85281,-62.12438 46.86291,0 84.85281,27.81404 84.85281,62.12438 z" cx="384.66" cy="540.93" rx="84.853" ry="62.124" transform="translate(-215.94495,415.15343)" filter="url(#filter3660)" fill="#FC0"/>
  <path id="path4244" fill="#00a2ff" transform="translate(0,868.11019)" d="m0.54552,158.95c0.31956-1.7397,1.0915-3.3392,1.8459-4.9226,0.72362-1.6052,1.9567-2.8381,3.0362-4.1937,1.1254-1.3333,2.5629-2.4018,4.0263-3.3399,1.9852-1.3894,4.0015-2.718,6.0895-3.9486,8.8373-2.9652,16.074-10.311,24.883-13.835,2.0691-0.82777,4.2053-1.469,6.3276-2.1421,3.7105-1.2116,7.5389-2.0313,11.406-2.5336,3.2654-0.32103,6.5553-0.23377,9.8312-0.17643,4.2404-0.10132,8.4586,0.31453,12.639,0.9862,3.7828,0.63672,7.5022,1.5784,11.216,2.5278,3.2025,0.77404,6.3609,1.7125,9.4838,2.76,3.5872,1.277,7.192,2.4864,10.742,3.8647,3.6178,1.5047,7.2918,2.8668,10.93,4.3182,0.62721,0.26543,1.2488,0.54461,1.8816,0.79629,2.0656,0.82148,4.1732,1.541,6.2556,2.3174,4.6798,1.7448,0.0836,0.11302,5.0017,1.8272,4.2784,1.4753,8.6531,2.6446,13.019,3.8286,3.0039,0.86994,6.0495,1.545,9.1443,1.989,3.5467,0.55557,7.1227,0.86991,10.705,1.0792,4.0398,0.19713,8.0786,0.38089,12.121,0.50719,5.0817,0.1287,10.168,0.29159,15.248,0.0703,4.736-0.33494,9.405-1.2717,13.98-2.5146,3.6913-1.0416,7.4025-2.0042,11.17-2.7287,3.7429-0.82207,7.5221-1.5028,11.184-2.6459,1.493-0.57632,3.0095-1.1059,4.4418-1.8272,1.1809-0.59466,2.2933-1.3283,3.4423-1.9811-34.252,21.02-22.012,12.839-14.513,8.0325,1.4669-0.86471,2.8384-1.865,4.2005-2.8821,0.82558-0.63467,1.613-1.315,2.424-1.9683,0,0,22.478-8.8161,22.478-8.8161-0.90997,0.50905-1.7376,1.1238-2.5119,1.8226-1.4154,1.162-2.8994,2.2345-4.4249,3.2457-0.64644,0.39435-1.2796,0.8103-1.9269,1.2032-0.32378,0.19653-0.66707,0.36065-0.98468,0.567-7.8059,5.0713-8.3518,12.097-23.155,13.656-2.4968,1.354-5.1297,2.4075-7.8877,3.1084-3.7042,0.90644-7.4464,1.6411-11.172,2.452-3.7142,0.85436-7.3893,1.855-11.093,2.7527-4.5633,0.9561-9.1775,1.69-13.847,1.8308-5.2064,0.0967-10.415,0.0419-15.622,0.0496-4.1153-0.0623-8.2268-0.24259-12.337-0.45353-3.6932-0.21934-7.3731-0.60243-11.036-1.1253-3.1399-0.54591-6.2589-1.2135-9.2671-2.2891-4.1448-1.3844-8.1967-3.0359-12.363-4.3579-1.7664-0.56949-3.548-1.0912-5.3138-1.6622-2.837-0.9174-5.634-1.9668-8.4277-3.0064-3.6532-1.3961-7.2654-2.8946-10.91-4.3122-3.5619-1.3421-7.1983-2.4737-10.818-3.6481-3.1366-0.93264-6.3006-1.7671-9.4509-2.6517-3.5522-0.98314-7.123-1.9453-10.768-2.5193-4.1785-0.55912-8.3749-0.76753-12.59-0.59229-3.2964,0.087-6.6024,0.14642-9.8751,0.58999-3.6216,0.52855-7.2084,1.3012-10.67,2.5081-1.7278,0.60089-2.6474,0.89052-4.3319,1.5957-8.0206,3.3578-21.019,12.302,13.078-8.0616-1.9562,1.1567-3.9729,2.2368-5.7472,3.6694-2.6056,1.8308,1.0894-0.72195-1.4751,0.91291-0.91182,0.58128-1.7334,1.3095-2.6716,1.8539-0.18637,0.17778-0.38366,0.34477-0.5591,0.53334-0.23038,0.24762-0.8675,1.063-1.0707,1.3195-0.33343,0.35975-0.91057,0.7737-1.2249,1.153-0.18881,0.22787-0.32721,0.49318-0.49082,0.73978-0.80965,1.1895-1.4207,2.4954-1.8413,3.8732,0,0-21.852,10.794-21.852,10.794z"/>
  <path id="path4250" fill="#00a2ff" transform="translate(0,868.11019)" d="m25.288,126.26c0.1731-0.07,0.34027-0.15695,0.51931-0.2099,0.2771-0.0819,1.9865-0.44555,2.123-0.47696,1.5723-0.36179,3.1268-0.7859,4.682-1.2144,3.5146-1.049,7.0521-2.0258,10.625-2.8537,3.5469-0.6439,7.0992-1.2643,10.659-1.8345,3.0197-0.38707,6.0071-0.96163,9.0085-1.4577,3.0986-0.52695,6.2272-0.85458,9.3584-1.1122,4.1428-0.40407,8.3063-0.50929,12.465-0.59659,2.866-0.027,5.736-0.13976,8.6016-0.0317,0.40329,0.0152,3.592,0.20398,4.0287,0.22955,3.5669,0.0764,7.0674,0.83115,10.55,1.5374,3.3914,0.67342,6.7778,1.3468,10.089,2.3512,2.952,1.0528,6.0012,1.7887,8.9638,2.806,2.5791,1.0701,5.149,2.1901,7.6285,3.477,2.601,1.2134,5.2007,2.4345,7.8394,3.5653,2.388,1.0375,4.721,2.2039,7.0276,3.4118,3.5301,1.7082,7.0702,3.3932,10.594,5.1136,2.9921,1.3554,5.986,2.6921,8.8803,4.2475,3.33,1.7549,6.6319,3.5613,9.9487,5.342,4.0654,2.1438,8.1964,4.1778,12.428,5.9739,3.3804,1.3457,6.7407,2.7361,10.119,4.0872,3.9124,1.7265,7.9592,3.1096,12.024,4.4243,4.4482,1.4162,8.9977,2.4118,13.611,3.0951,2.7254,0.2894,5.4522,0.58105,8.191,0.70743,2.3121,0.28165,4.6407,0.36283,6.9668,0.42807,1.6082-0.0174,3.2273,0.11872,4.8307-0.0623,0.71604-0.0808,1.4248-0.21736,2.1386-0.31616,0.98987-0.051,1.9376-0.32204,2.897-0.5357,0.88378-0.19683,1.7797-0.33256,2.6641-0.52913,1.0001-0.29414,2.0532-0.26814,3.0652-0.49062,0.24395-0.0536,0.48257-0.12915,0.72385-0.19373,0.25378-0.0516,0.50755-0.10318,0.76133-0.15477,0.71391-0.158,1.4536-0.25387,2.1585-0.45155,1.3943-0.391-0.13753-0.0423,1.1968-0.47832,0.21806-0.0712,0.44731-0.10209,0.67096-0.15314,0.68165-0.0471,1.2727-0.35718,1.8969-0.58465,0.20253-0.0738,0.41864-0.10607,0.62121-0.17979,0.23776-0.0865,0.87293-0.40294,1.1002-0.51356,0.50853-0.28073,1.1195-0.29918,1.6318-0.56769,0.1506-0.079,0.26895-0.20929,0.41387-0.29825,0.35644-0.21878,0.46497-0.22946,0.8538-0.35611,0.24586-0.37446,0.58807-0.35252,0.94939-0.49456,0.0997-0.0392,0.17311-0.12928,0.27116-0.17235,0.10665-0.0468,0.23895-0.0308,0.33642-0.0945,0.0915-0.0599,0.13502-0.17213,0.20253-0.25819,0.30053-0.20231,0.62773-0.19498,0.97412-0.20318,0,0-19.255,14.99-19.255,14.99-0.2225,0.19359-0.4271,0.41137-0.69687,0.54082-0.63678,0.0924-0.0813-0.0349-0.62856,0.22142-0.10455,0.049-0.22516,0.0595-0.32724,0.11346-0.30917,0.16332-0.50547,0.44308-0.90464,0.42247-0.88877,0.4826-1.9023,0.62738-2.8076,1.0884-1.2311,0.39719-2.479,0.70909-3.7245,1.0543-1.3218,0.46198-2.7254,0.58014-4.0883,0.88815-1.4927,0.30326-3.0125,0.45465-4.5007,0.78792-1.8447,0.32342-3.6822,0.69069-5.5562,0.80647-2.347,0.19713-4.6994,0.0877-7.051,0.0258-2.3779-0.0738-4.7484-0.24168-7.1177-0.45563-2.6213-0.27879-5.2298-0.69422-7.7955-1.3049-4.5188-1.0514-9.0253-2.173-13.464-3.5278-4.2264-1.3038-8.4342-2.6668-12.561-4.2639-3.3685-1.3336-6.6688-2.8284-9.9712-4.3166-4.1326-1.9953-8.1711-4.1844-12.307-6.1755-3.5209-1.6909-7.088-3.284-10.604-4.9838-2.7847-1.516-5.5706-3.0289-8.4023-4.4563-3.5564-1.772-7.1968-3.3603-10.868-4.8797-2.4297-1.0196-4.8487-2.0637-7.1908-3.2751-2.5735-1.2539-5.1853-2.426-7.7594-3.6787-2.4994-1.1201-4.9963-2.2593-7.5847-3.1625-2.8761-0.97499-5.6995-2.12-8.6479-2.8736-3.2824-0.86815-6.6046-1.5776-9.9399-2.2114-3.3897-0.62483-6.7901-1.2313-10.241-1.3848-4.1164-0.25779-8.2347-0.28301-12.357-0.1481-4.2219,0.13598-8.4406,0.3724-12.63,0.93568-3.1733,0.39057-6.3413,0.824-9.4879,1.3956-2.9531,0.50424-5.9231,0.88925-8.886,1.3298-3.5076,0.52758-7.0162,1.0971-10.466,1.928-3.533,0.88313-7.0363,1.8704-10.529,2.8997-2.7459,0.80323-5.528,1.5194-8.1171,2.7629,0,0,19.178-15.014,19.178-15.014z"/>
  <path id="path4252" fill="#00a2ff" transform="translate(0,868.11019)" d="m12.923,172.33c1.4741-1.552,2.9791-3.0824,4.4711-4.6208,1.4983-1.4361,3.1357-2.7804,4.9338-3.8304,21.021-12.275,14.099-8.9154,23.245-13.279,4.1384-1.876,8.4797-3.2437,12.816-4.5771,4.6239-1.5768,9.4196-2.5289,14.174-3.6103,5.1734-1.1581,10.457-1.5274,15.738-1.7516,5.3653-0.22509,10.663-0.25006,16.02,0.12358,4.6486,0.33957,9.2456,1.1151,13.861,1.7285,2.7377,0.38726,5.4905,0.70484,8.2001,1.2671,1.6826,0.34914,2.4003,0.55969,4.0659,0.99517,2.0604,0.4562,4.0595,1.1432,6.0941,1.6923,2.1346,0.57604,4.3021,1.059,6.4577,1.549,4.9079,1.4968,9.8871,2.7194,14.896,3.8224,4.856,1.2022,9.8277,1.7923,14.781,2.4265,5.1123,0.8047,10.23,1.5758,15.34,2.3973,5.8098,0.93409,11.662,1.5841,17.531,1.9949,4.5793,0.28705,9.1694,0.24108,13.755,0.23068,4.0612-0.096,8.1142,0.14304,12.172,0.25286,3.0004-0.0462,6.0165-0.32053,8.9215-1.1089,1.6355-0.44385,2.6723-0.88426,4.2498-1.4864,2.6756-1.2474,5.3411-2.5136,7.9022-3.9856,0.62473-0.35906,2.4841-1.4617,1.8596-1.1022-5.863,3.3755-11.717,6.7669-17.575,10.15,10.507-6.452,21.179-12.603,32.343-17.82,1.5552-0.78475,3.1741-1.4247,4.7965-2.0525,0,0-18.505,14.532-18.505,14.532-1.4311,0.57053-2.8562,1.1558-4.2518,1.8101-2.0524,0.96063-4.0902,1.9454-6.098,2.997-7.0991,3.7181-18.67,10.978,13.029-7.6501-7.1886,4.153-14.371,8.3172-21.566,12.459-3.1894,1.8361-6.5362,3.4176-9.9797,4.7133-0.72286,0.22452-1.4381,0.47531-2.1686,0.67356-3.7442,1.0161-7.648,1.3534-11.516,1.2813-4.1149-0.1022-8.2286-0.0444-12.344-0.0835-4.431-0.1024-8.854-0.37234-13.267-0.78884-5.8813-0.58192-11.754-1.2684-17.603-2.1178-5.1986-0.70883-10.399-1.399-15.589-2.1722-4.9647-0.658-9.9004-1.4849-14.766-2.6912-5.0519-1.1628-10.07-2.4578-15.108-3.6745-4.2684-0.94817-8.4906-2.0658-12.718-3.1799-3.998-0.91321-8.0414-1.5388-12.102-2.1031-4.4935-0.6949-8.9852-1.4598-13.529-1.744-5.227-0.30451-10.465-0.33295-15.695-0.031-5.2725,0.34501-10.526,0.92593-15.67,2.1839-4.7391,1.0937-9.4717,2.2295-14.087,3.781-4.3852,1.4438-8.7738,2.9493-12.868,5.1101-7.7512,4.3074-4.2336,2.3667,16.506-9.6111,0.46691-0.26965-0.92412,0.5558-1.3833,0.83846-1.4313,0.88113-1.0932,0.65562-2.4086,1.6263-0.34867,0.25728-0.69467,0.51817-1.042,0.77726-0.85476,0.8127-1.6591,1.6492-2.4441,2.5294-0.37096,0.41597-0.70186,0.86685-1.0777,1.2784-0.10724,0.11744-0.23782,0.21122-0.35672,0.31683,0,0-22.439,9.5338-22.439,9.5338z"/>
  <path id="path4258" fill="#00a2ff" transform="translate(0,868.11019)" d="m42.881,178.6c2.8311-2.1791,5.7387-4.2553,8.6427-6.3352,11.023-7.9066,22.744-14.87,34.883-20.925,3.2221-1.5611,6.5161-3.004,9.9459-4.0511,1.2808-0.39101,3.3546-0.88748,4.6582-1.2109,5.0131-1.2269,10.119-1.9773,15.232-2.6366,4.8991-0.56384,9.8085-1.0282,14.728-1.366,4.3734-0.25943,8.7558-0.25452,13.135-0.29315,4.3388-0.0401,8.6861,0.2212,12.986,0.80103,5.0356,0.76144,10.003,1.896,14.947,3.101,4.2904,1.125,8.5846,2.2318,12.867,3.3863,4.1732,1.2252,8.2787,2.6664,12.362,4.1607,5.4921,1.9389,11.119,3.4475,16.793,4.7452,4.0541,0.86143,8.1122,1.7371,12.206,2.3923,3.7835,0.54181,7.6099,0.61871,11.424,0.7222,3.2525,0.13067,6.5158,0.0225,9.7462-0.39422,1.4847-0.19151,3.2241-0.54219,4.698-0.82107,3.4809-0.69143,6.8525-1.8952,10.003-3.5218,0.34942-0.1755,0.70853-0.33292,1.0483-0.52651,0.32582-0.18566,1.271-0.7959,0.94554-0.60962-6.479,3.7082-12.937,7.4534-19.407,11.176-0.32102,0.18469,0.64481-0.36505,0.95852-0.56191,0.63819-0.40049,1.2534-0.83655,1.882-1.2519,1.53-1.1212,3.0128-2.3053,4.4951-3.4884,0.81787-0.73488,1.6283-1.4864,2.3086-2.3521,0.46604-0.49241,0.81911-1.072,1.2488-1.5942,0,0,22.234-9.6802,22.234-9.6802-0.35807,0.60441-0.83594,1.1144-1.175,1.7325-0.33641,0.42041-0.6199,0.88495-0.95716,1.3019-0.43598,0.53893-0.97986,0.99143-1.4303,1.5175-1.4182,1.4221-3.0997,2.5359-4.6512,3.8045-1.7616,1.4449-0.00077,0.0527-1.8244,1.3443-0.30478,0.21586-0.56904,0.49024-0.89145,0.67876-7.6851,4.4936-15.119,9.6744-23.335,13.212-3.1454,1.1697-6.3745,2.0693-9.7049,2.5419-4.8856,0.68511-9.8048,1.0244-14.741,0.92281-3.9768-0.0264-7.9826-0.071-11.898-0.8521-3.9838-0.82671-7.9491-1.7505-11.872-2.8318-5.5515-1.649-11.066-3.4172-16.637-5.0029-4.3301-1.2165-8.6847-2.3459-12.988-3.656-4.0749-1.2786-8.1423-2.5883-12.277-3.6636-4.9398-1.1829-9.9307-2.1312-14.98-2.7124-4.3097-0.33061-8.6271-0.60074-12.952-0.51205-4.3279,0.0126-8.6571,0.0872-12.978,0.3494-4.7992,0.30583-9.5942,0.71289-14.368,1.2968-5.1339,0.74582-10.257,1.6103-15.263,2.9984-1.8172,0.4979-2.7044,0.71144-4.4865,1.317-3.2288,1.0971-6.3486,2.4915-9.4005,4.0062-7.8856,4.1432-5.1741,2.7667,13.529-8.0168,0.91811-0.52937-1.8218,1.0838-2.7183,1.649-1.3515,0.85213-3.7611,2.4708-5.0762,3.4049-0.75689,0.53766-1.4953,1.1009-2.2429,1.6513-2.3987,1.7737-4.7999,3.5577-7.0422,5.5283,0,0-22.608,9.1254-22.608,9.1254z"/>
 </g>
</svg>
